<svg xmlns="http://www.w3.org/2000/svg" viewBox="0 0 240 240">
  <defs>
    <linearGradient id="bg" x1="0" x2="1" y1="0" y2="1">
      <stop offset="0%" stop-color="#d8fbff"/>
      <stop offset="100%" stop-color="#4ba6ff"/>
    </linearGradient>
    <linearGradient id="body" x1="0" x2="0" y1="0" y2="1">
      <stop offset="0%" stop-color="#ffffff"/>
      <stop offset="100%" stop-color="#d7f4ff"/>
    </linearGradient>
  </defs>
  <rect width="240" height="240" rx="36" fill="url(#bg)"/>
  <circle cx="187" cy="51" r="13" fill="#fff" opacity=".28"/>
  <ellipse cx="120" cy="194" rx="66" ry="24" fill="#18527f" opacity=".22"/>
  <path d="M81 110c4-40 34-68 72-68s65 26 67 66c2 48-28 82-72 82s-70-34-67-80Z" fill="url(#body)" stroke="#18364c" stroke-width="6" stroke-linejoin="round"/>
  <path d="M75 109c17-30 43-42 67-42-9 21-9 41 0 58-32 1-52-3-67-16Z" fill="#86e6ff" stroke="#18364c" stroke-width="6" stroke-linejoin="round"/>
  <path d="M166 109c-17-30-43-42-67-42 9 21 9 41 0 58 32 1 52-3 67-16Z" fill="#57cfff" stroke="#18364c" stroke-width="6" stroke-linejoin="round"/>
  <circle cx="120" cy="67" r="14" fill="#fff" opacity=".95" stroke="#77dfff" stroke-width="5"/>
  <circle cx="98" cy="119" r="10" fill="#173449"/>
  <circle cx="145" cy="119" r="10" fill="#173449"/>
  <circle cx="95" cy="116" r="3" fill="#fff"/>
  <circle cx="142" cy="116" r="3" fill="#fff"/>
  <path d="M103 148c10 8 24 8 34 0" stroke="#173449" stroke-width="7" fill="none" stroke-linecap="round"/>
  <circle cx="87" cy="138" r="6" fill="#a7e4ff"/>
  <circle cx="154" cy="138" r="6" fill="#a7e4ff"/>
</svg>
