<svg xmlns="http://www.w3.org/2000/svg" viewBox="0 0 240 240">
  <rect width="240" height="240" rx="36" fill="#b89f74"/>
  <ellipse cx="121" cy="207" rx="68" ry="14" fill="#806745" opacity=".2"/>
  <path d="M101 165c-28-20-31-62-5-88 16-16 38-18 57-2 20 15 29 42 24 67-7 35-48 47-76 23Z" fill="#f5eee1" stroke="#5e4938" stroke-width="6"/>
  <path d="M86 96c-15 6-27 17-38 30M156 95c19 4 33 15 42 31" fill="none" stroke="#6d321f" stroke-width="8" stroke-linecap="round"/>
  <path d="M88 126c8-21 22-31 37-31 17 0 30 12 33 34-13 18-51 18-70-3Z" fill="#4f1f17" stroke="#33120d" stroke-width="5"/>
  <path d="M90 126c4 13 17 25 38 36 11 7 22 13 32 17 14-5 26-23 28-46-15 0-31 8-47 23-13-15-29-25-51-30Z" fill="#7a3d28" opacity=".96"/>
  <path d="M77 139c-15 12-25 28-30 48M92 151c-10 11-17 27-18 48M155 151c10 12 17 28 18 49M171 139c17 13 29 30 34 49" fill="none" stroke="#6d321f" stroke-width="7" stroke-linecap="round"/>
  <circle cx="105" cy="106" r="10" fill="#78766b"/>
  <circle cx="143" cy="108" r="10" fill="#78766b"/>
  <circle cx="102" cy="103" r="3" fill="#fff"/>
  <circle cx="140" cy="105" r="3" fill="#fff"/>
  <path d="M107 154c10 7 21 9 33 5" fill="none" stroke="#b58d76" stroke-width="4" stroke-linecap="round"/>
</svg>
