<svg xmlns="http://www.w3.org/2000/svg" viewBox="0 0 240 240">
  <defs>
    <linearGradient id="mint" x1="0" x2="1" y1="0" y2="1">
      <stop offset="0%" stop-color="#dcefd5"/>
      <stop offset="100%" stop-color="#bfd4b0"/>
    </linearGradient>
  </defs>
  <rect width="240" height="240" rx="36" fill="url(#mint)"/>
  <ellipse cx="121" cy="208" rx="59" ry="14" fill="#9eb19c" opacity=".24"/>
  <path d="M110 34h26l-6 34h-14Z" fill="#7f9cbe" stroke="#364152" stroke-width="5"/>
  <path d="M85 74c10-21 27-34 41-34 17 0 31 12 41 34l-12 51H97Z" fill="#d28fd4" stroke="#463b59" stroke-width="6"/>
  <path d="M95 84c4 7 11 11 19 11M147 84c-4 7-10 11-18 11" fill="none" stroke="#876388" stroke-width="4"/>
  <ellipse cx="105" cy="98" rx="19" ry="23" fill="#f48bad" stroke="#43384d" stroke-width="5"/>
  <ellipse cx="141" cy="98" rx="19" ry="23" fill="#f48bad" stroke="#43384d" stroke-width="5"/>
  <path d="M95 98h20M131 98h20M105 83v30M141 83v30" stroke="#83576a" stroke-width="2"/>
  <path d="M118 88c9 13 10 30 1 48" stroke="#43384d" stroke-width="8" stroke-linecap="round"/>
  <path d="M84 92 63 84M160 92 179 83" stroke="#cf84d0" stroke-width="7" stroke-linecap="round"/>
  <path d="M97 126c-3 25-4 46-2 64M115 126c0 26 1 49 1 74M133 126c1 29 1 54 0 74M150 126c4 19 7 38 8 61" fill="none" stroke="#cf84d0" stroke-width="10" stroke-linecap="round"/>
  <path d="M76 136c-8 14-14 29-18 45M166 136c9 14 16 29 19 46" fill="none" stroke="#cf84d0" stroke-width="10" stroke-linecap="round"/>
  <path d="M113 113c5 5 10 7 16 6" fill="none" stroke="#43384d" stroke-width="5" stroke-linecap="round"/>
</svg>
