<svg xmlns="http://www.w3.org/2000/svg" viewBox="0 0 240 240">
  <rect width="240" height="240" rx="36" fill="#54b8f5"/>
  <ellipse cx="120" cy="193" rx="58" ry="22" fill="#1c537f" opacity=".25"/>
  <path d="M80 115c4-35 29-58 63-58s58 20 60 54c2 43-25 72-63 72s-62-28-60-68Z" fill="#f2fdff" stroke="#18364c" stroke-width="6"/>
  <path d="M84 98c17-20 38-31 60-31-10 20-11 37-2 51-24 2-40-3-58-20Z" fill="#8ce8ff" stroke="#18364c" stroke-width="6"/>
  <circle cx="98" cy="121" r="9" fill="#18364c"/>
  <circle cx="141" cy="121" r="9" fill="#18364c"/>
  <circle cx="95" cy="118" r="3" fill="#fff"/>
  <circle cx="138" cy="118" r="3" fill="#fff"/>
  <path d="M104 146c10 7 22 7 32 0" stroke="#18364c" stroke-width="7" fill="none" stroke-linecap="round"/>
  <circle cx="159" cy="88" r="11" fill="#d7f8ff" stroke="#7edcf9" stroke-width="4"/>
</svg>
