<svg xmlns="http://www.w3.org/2000/svg" viewBox="0 0 240 240">
  <defs>
    <linearGradient id="bg" x1="0" x2="1" y1="0" y2="1">
      <stop offset="0%" stop-color="#d2ffe3"/>
      <stop offset="100%" stop-color="#60c886"/>
    </linearGradient>
    <linearGradient id="body" x1="0" x2="0" y1="0" y2="1">
      <stop offset="0%" stop-color="#fffef1"/>
      <stop offset="100%" stop-color="#d7f8c7"/>
    </linearGradient>
  </defs>
  <rect width="240" height="240" rx="36" fill="url(#bg)"/>
  <circle cx="198" cy="44" r="18" fill="#ffffff" opacity=".3"/>
  <ellipse cx="120" cy="194" rx="68" ry="24" fill="#296946" opacity=".24"/>
  <path d="M79 106c4-42 33-68 73-68s67 27 69 67c2 47-28 83-72 83s-77-34-70-82Z" fill="url(#body)" stroke="#24452f" stroke-width="6" stroke-linejoin="round"/>
  <ellipse cx="121" cy="77" rx="17" ry="11" fill="#f9fff4" opacity=".8"/>
  <path d="M118 57c-15-31-44-41-66-18 28 28 53 32 73 29" fill="#49d36d" stroke="#24452f" stroke-width="6" stroke-linejoin="round"/>
  <path d="M120 57c17-31 47-38 67-11-18 23-43 30-70 27" fill="#36b85c" stroke="#24452f" stroke-width="6" stroke-linejoin="round"/>
  <path d="M82 112c-17 3-27 12-30 25 16 7 28 7 39-1" fill="#b5f1a8" stroke="#24452f" stroke-width="6" stroke-linejoin="round"/>
  <path d="M158 112c17 3 27 12 30 25-16 7-28 7-39-1" fill="#b5f1a8" stroke="#24452f" stroke-width="6" stroke-linejoin="round"/>
  <circle cx="97" cy="118" r="10" fill="#22352a"/>
  <circle cx="146" cy="118" r="10" fill="#22352a"/>
  <circle cx="94" cy="115" r="3" fill="#fff"/>
  <circle cx="143" cy="115" r="3" fill="#fff"/>
  <path d="M103 149c12 11 24 11 36 0" stroke="#22352a" stroke-width="7" fill="none" stroke-linecap="round"/>
  <circle cx="88" cy="137" r="6" fill="#ffb8c2"/>
  <circle cx="154" cy="137" r="6" fill="#ffb8c2"/>
</svg>
